<?xml version="1.0" encoding="UTF-8" standalone="no"?>
<svg
   xmlns:dc="http://purl.org/dc/elements/1.1/"
   xmlns:cc="http://creativecommons.org/ns#"
   xmlns:rdf="http://www.w3.org/1999/02/22-rdf-syntax-ns#"
   xmlns:svg="http://www.w3.org/2000/svg"
   xmlns="http://www.w3.org/2000/svg"
   id="svg1161"
   version="1.1"
   viewBox="0 0 30.854296 28.711172"
   height="28.711172mm"
   width="30.854296mm">
  <defs
     id="defs1155">
    <clipPath
       clipPathUnits="userSpaceOnUse"
       id="clipPath164">
      <path
         d="M 0,768 H 1366 V 0 H 0 Z"
         id="path162" />
    </clipPath>
  </defs>
  <metadata
     id="metadata1158">
    <rdf:RDF>
      <cc:Work
         rdf:about="">
        <dc:format>image/svg+xml</dc:format>
        <dc:type
           rdf:resource="http://purl.org/dc/dcmitype/StillImage" />
        <dc:title></dc:title>
      </cc:Work>
    </rdf:RDF>
  </metadata>
  <g
     transform="translate(37.349767,-16.638465)"
     id="layer1">
    <g
       id="g158"
       transform="matrix(0.35277777,0,0,-0.35277777,-68.371633,267.89466)">
      <g
         id="g160"
         clip-path="url(#clipPath164)">
        <g
           id="g166"
           transform="translate(121.1211,673.4087)">
          <path
             d="m 0,0 c -0.097,-0.143 -0.19,-0.255 -0.283,-0.337 -0.092,-0.082 -0.226,-0.123 -0.401,-0.123 -0.167,0 -0.329,0.059 -0.487,0.177 -0.158,0.117 -0.346,0.25 -0.564,0.398 -0.22,0.148 -0.481,0.282 -0.784,0.399 -0.301,0.117 -0.676,0.176 -1.124,0.176 -0.57,0 -1.07,-0.12 -1.5,-0.36 -0.43,-0.24 -0.787,-0.585 -1.072,-1.035 -0.285,-0.45 -0.497,-0.994 -0.638,-1.633 -0.14,-0.639 -0.209,-1.362 -0.209,-2.17 0,-0.838 0.077,-1.584 0.229,-2.238 0.153,-0.655 0.375,-1.204 0.664,-1.648 0.29,-0.445 0.641,-0.782 1.053,-1.012 0.411,-0.23 0.876,-0.345 1.394,-0.345 0.517,0 0.936,0.074 1.256,0.222 0.32,0.148 0.589,0.312 0.809,0.491 0.22,0.179 0.41,0.343 0.572,0.491 0.162,0.147 0.344,0.222 0.545,0.222 0.265,0 0.461,-0.118 0.594,-0.353 l 0.932,-1.379 c -0.359,-0.491 -0.749,-0.903 -1.17,-1.235 -0.42,-0.332 -0.857,-0.598 -1.309,-0.798 -0.45,-0.198 -0.919,-0.339 -1.401,-0.421 -0.482,-0.082 -0.96,-0.123 -1.433,-0.123 -0.833,0 -1.617,0.182 -2.355,0.544 -0.736,0.363 -1.378,0.892 -1.925,1.588 -0.548,0.695 -0.984,1.546 -1.303,2.552 -0.319,1.007 -0.48,2.155 -0.48,3.442 0,1.156 0.142,2.226 0.427,3.212 0.285,0.987 0.704,1.841 1.256,2.561 0.553,0.721 1.236,1.285 2.052,1.694 0.815,0.409 1.754,0.614 2.814,0.614 1.009,0 1.892,-0.189 2.652,-0.568 C -0.432,2.627 0.25,2.085 0.855,1.38 Z"
             style="fill:#ffffff;fill-opacity:1;fill-rule:nonzero;stroke:none"
             id="path168" />
        </g>
        <g
           id="g170"
           transform="translate(130.0781,673.9604)">
          <path
             d="M 0,0 C 0.526,0 0.969,0.098 1.328,0.292 1.688,0.486 1.977,0.744 2.196,1.066 2.415,1.388 2.571,1.756 2.663,2.17 2.755,2.584 2.801,3.011 2.801,3.45 2.801,3.869 2.744,4.268 2.63,4.646 2.516,5.024 2.345,5.359 2.117,5.651 1.889,5.942 1.6,6.174 1.249,6.348 0.898,6.522 0.482,6.609 0,6.609 -0.482,6.609 -0.899,6.522 -1.25,6.348 -1.6,6.174 -1.892,5.942 -2.124,5.651 -2.357,5.359 -2.528,5.024 -2.637,4.646 -2.747,4.268 -2.802,3.869 -2.802,3.45 c 0,-0.439 0.046,-0.866 0.139,-1.28 0.091,-0.414 0.247,-0.782 0.466,-1.104 0.219,-0.322 0.51,-0.58 0.868,-0.774 C -0.969,0.098 -0.527,0 0,0 m 0,-10.241 c 0.534,0 1.004,0.089 1.407,0.267 0.403,0.179 0.743,0.428 1.019,0.744 0.276,0.317 0.484,0.695 0.625,1.135 0.14,0.439 0.21,0.914 0.21,1.426 0,1.216 -0.289,2.136 -0.867,2.759 -0.579,0.624 -1.377,0.936 -2.394,0.936 -1.017,0 -1.815,-0.312 -2.394,-0.936 -0.579,-0.623 -0.868,-1.543 -0.868,-2.759 0,-0.512 0.07,-0.987 0.211,-1.426 0.139,-0.44 0.348,-0.818 0.624,-1.135 0.277,-0.316 0.616,-0.565 1.02,-0.744 0.403,-0.178 0.872,-0.267 1.407,-0.267 m 0,-2.96 c -0.982,0 -1.879,0.153 -2.69,0.46 -0.811,0.307 -1.506,0.741 -2.085,1.303 -0.578,0.562 -1.028,1.242 -1.347,2.04 -0.321,0.797 -0.481,1.686 -0.481,2.668 0,1.308 0.276,2.414 0.829,3.319 0.552,0.904 1.411,1.576 2.578,2.016 -0.93,0.45 -1.624,1.089 -2.085,1.916 -0.461,0.829 -0.691,1.825 -0.691,2.99 0,0.838 0.147,1.62 0.441,2.346 0.294,0.726 0.703,1.357 1.23,1.894 0.526,0.536 1.155,0.956 1.887,1.257 C -1.682,9.309 -0.877,9.46 0,9.46 0.876,9.46 1.681,9.309 2.413,9.008 3.146,8.707 3.774,8.287 4.3,7.751 4.827,7.214 5.236,6.583 5.53,5.857 5.824,5.131 5.971,4.349 5.971,3.511 5.971,2.346 5.738,1.35 5.274,0.521 4.809,-0.306 4.116,-0.945 3.196,-1.395 c 1.166,-0.44 2.025,-1.112 2.577,-2.016 0.553,-0.905 0.829,-2.011 0.829,-3.319 0,-0.982 -0.16,-1.871 -0.48,-2.668 -0.32,-0.798 -0.768,-1.478 -1.348,-2.04 C 4.195,-12 3.5,-12.434 2.689,-12.741 1.878,-13.048 0.982,-13.201 0,-13.201"
             style="fill:#ffffff;fill-opacity:1;fill-rule:nonzero;stroke:none"
             id="path172" />
        </g>
        <g
           id="g174"
           transform="translate(148.9502,672.0903)">
          <path
             d="M 0,0 C 0,1.604 -0.101,2.934 -0.302,3.986 -0.504,5.039 -0.773,5.877 -1.11,6.501 -1.448,7.124 -1.837,7.561 -2.274,7.812 -2.713,8.062 -3.17,8.187 -3.643,8.187 -4.107,8.187 -4.557,8.062 -4.99,7.812 -5.425,7.561 -5.809,7.124 -6.142,6.501 -6.475,5.877 -6.74,5.039 -6.937,3.986 -7.135,2.934 -7.232,1.604 -7.232,0 c 0,-1.605 0.097,-2.934 0.295,-3.986 0.197,-1.053 0.462,-1.891 0.795,-2.515 0.333,-0.623 0.717,-1.06 1.152,-1.311 0.433,-0.25 0.883,-0.375 1.347,-0.375 0.473,0 0.93,0.125 1.369,0.375 0.437,0.251 0.826,0.688 1.164,1.311 0.337,0.624 0.606,1.462 0.808,2.515 C -0.101,-2.934 0,-1.605 0,0 m 3.354,0 c 0,-1.932 -0.177,-3.611 -0.533,-5.037 -0.354,-1.425 -0.845,-2.603 -1.472,-3.534 -0.626,-0.93 -1.369,-1.622 -2.223,-2.077 -0.855,-0.455 -1.777,-0.682 -2.769,-0.682 -0.991,0 -1.909,0.227 -2.755,0.682 -0.846,0.455 -1.581,1.147 -2.203,2.077 -0.623,0.931 -1.11,2.109 -1.46,3.534 -0.35,1.426 -0.526,3.105 -0.526,5.037 0,1.942 0.176,3.624 0.526,5.045 0.35,1.42 0.837,2.595 1.46,3.526 0.622,0.93 1.357,1.622 2.203,2.077 0.846,0.455 1.764,0.682 2.755,0.682 0.992,0 1.914,-0.227 2.769,-0.682 C -0.02,10.193 0.723,9.501 1.349,8.571 1.976,7.64 2.467,6.465 2.821,5.045 3.177,3.624 3.354,1.942 3.354,0"
             style="fill:#ffffff;fill-opacity:1;fill-rule:nonzero;stroke:none"
             id="path176" />
        </g>
        <g
           id="g178"
           transform="translate(173.251,654.8433)">
          <path
             d="M 0,0 -41.607,-21.752 -83.33,-0.003 v 50.319 l 3.854,-1.936 V 1.488 l 37.863,-18.864 37.692,18.852 0.002,47.116 4.082,1.743 z M -77.491,54.165 -41.678,37.872 -5.906,54.275 V 2.676 L -41.624,-15.14 -77.491,2.702 Z m 73.572,-3.359 v 6.573 L -41.678,40.086 -79.476,57.359 v -6.698 l -5.839,2.869 V -1.206 L -41.576,-24.007 1.985,-1.166 2.146,53.53 Z"
             style="fill:#ffffff;fill-opacity:1;fill-rule:nonzero;stroke:none"
             id="path180" />
        </g>
      </g>
    </g>
  </g>
</svg>
