<svg width="150" height="84" viewBox="0 0 150 84" fill="none" xmlns="http://www.w3.org/2000/svg">
<path d="M41.1143 27.369V31.5443L11 29.1983V24.8035L41.1143 27.369Z" fill="#EB2F2F"/>
<path d="M41.1143 36.5288V40.7041L11 38.358V34.0364L41.1143 36.5288Z" fill="#1B9EA8"/>
<path d="M138.715 35.2072V39.3871L108.381 37.0411L108.6 32.7148L138.715 35.2072Z" fill="#EB2F2F"/>
<path d="M138.715 44.3674V48.5427L108.381 46.2012L108.6 41.875L138.715 44.3674Z" fill="#1B9EA8"/>
<path d="M64.5609 39.8264C64.4877 39.9728 64.4145 40.1191 64.2682 40.1923C64.195 40.2654 64.0487 40.3386 63.9023 40.3386C63.756 40.3386 63.6096 40.2654 63.4633 40.1191C63.317 40.0459 63.0974 39.8996 62.8779 39.7532C62.6584 39.6069 62.4389 39.4606 62.1462 39.3874C61.8535 39.2365 61.4831 39.1633 61.0441 39.1633C60.4587 39.1633 60.0197 39.3096 59.5807 39.5337C59.1417 39.7532 58.7758 40.1191 58.5563 40.5581C58.2636 40.9971 58.0395 41.5093 57.8932 42.1679C57.7468 42.7578 57.6737 43.4895 57.6737 44.2212C57.6737 45.0993 57.7468 45.8356 57.8932 46.4209C58.0395 47.0795 58.2636 47.5917 58.5563 48.0307C58.849 48.4697 59.2148 48.8401 59.5807 49.0596C60.0197 49.2792 60.4587 49.3523 60.9709 49.3523C61.4831 49.3523 61.8535 49.2792 62.1462 49.1328C62.5121 48.9865 62.7316 48.8401 62.9511 48.6938C63.1706 48.4697 63.3901 48.3234 63.5365 48.177C63.6828 48.0307 63.8292 47.9575 64.0487 47.9575C64.3414 47.9575 64.4877 48.1039 64.634 48.3234L65.5167 49.645C65.224 50.1572 64.7804 50.5231 64.4145 50.8889C63.9755 51.1816 63.5365 51.4743 63.0974 51.6206C62.6584 51.8447 62.2194 51.991 61.7804 52.0642C61.2636 52.1374 60.8246 52.2106 60.3856 52.2106C59.5807 52.2106 58.7758 51.991 58.0395 51.6206C57.381 51.2548 56.7225 50.7426 56.2103 50.084C55.6249 49.4255 55.259 48.6206 54.8886 47.5917C54.5959 46.6404 54.4496 45.5429 54.4496 44.2212C54.4496 43.1237 54.5959 42.0947 54.8886 41.1435C55.1127 40.1923 55.5517 39.3096 56.0639 38.6511C56.6493 37.9194 57.3078 37.4072 58.1127 36.9682C58.9221 36.6023 59.8002 36.3828 60.8246 36.3828C61.8535 36.3828 62.6584 36.5292 63.3901 36.895C64.195 37.2609 64.8581 37.8462 65.4435 38.5048L64.5609 39.8264Z" fill="#414E62"/>
<path d="M73.2817 39.3096C73.7939 39.3096 74.233 39.2365 74.5988 39.017C74.9692 38.8706 75.2619 38.5779 75.4814 38.2853C75.7009 37.9926 75.8473 37.6267 75.9205 37.1877C75.9936 36.8218 76.0668 36.3828 76.0668 35.9392C76.0668 35.5734 75.9936 35.1343 75.8473 34.7685C75.7741 34.4026 75.6278 34.11 75.4083 33.8173C75.1887 33.5246 74.8961 33.3051 74.5256 33.1542C74.1598 32.9346 73.7939 32.8615 73.2817 32.8615C72.8427 32.8615 72.4037 32.9346 72.111 33.1542C71.7452 33.3051 71.4525 33.5246 71.2284 33.8173C71.0089 34.11 70.8625 34.4026 70.7162 34.7685C70.643 35.1343 70.5698 35.5734 70.5698 35.9392C70.5698 36.3828 70.643 36.8218 70.7162 37.1877C70.7894 37.6267 70.9357 37.9926 71.1552 38.2853C71.3793 38.5779 71.672 38.8706 72.0378 39.017C72.4037 39.2365 72.7695 39.3096 73.2817 39.3096ZM73.2817 49.2792C73.8671 49.2792 74.3061 49.206 74.6766 49.0596C75.1156 48.8401 75.4083 48.6206 75.7009 48.3234C75.9205 48.0307 76.14 47.6648 76.2863 47.2258C76.4326 46.7868 76.5058 46.3478 76.5058 45.8356C76.5058 44.6603 76.2131 43.709 75.6278 43.1237C75.1156 42.5383 74.3061 42.241 73.2817 42.241C72.3305 42.241 71.5256 42.5383 71.0089 43.1237C70.4235 43.709 70.1308 44.6603 70.1308 45.8356C70.1308 46.3478 70.204 46.7868 70.3503 47.2258C70.4967 47.6648 70.643 48.0307 70.9357 48.3234C71.2284 48.6206 71.5256 48.8401 71.9647 49.0596C72.3305 49.206 72.7695 49.2792 73.2817 49.2792ZM73.2817 52.2106C72.3305 52.2106 71.4525 52.0642 70.7162 51.7715C69.9113 51.4743 69.2528 51.0353 68.6674 50.4499C68.0775 49.9377 67.6384 49.2792 67.3458 48.4697C67.0531 47.738 66.9067 46.86 66.9067 45.9087C66.9067 44.5871 67.1263 43.5627 67.7116 42.6115C68.2284 41.7289 69.0333 41.1435 70.204 40.7045C69.3259 40.2654 68.5942 39.6069 68.1552 38.7975C67.7116 37.9926 67.4921 37.0414 67.4921 35.866C67.4921 35.0612 67.6384 34.3295 67.9311 33.5978C68.2284 32.9346 68.5942 32.2761 69.1064 31.7639C69.6186 31.2517 70.2772 30.8127 70.9357 30.52C71.672 30.2273 72.4769 30.0764 73.2817 30.0764C74.1598 30.0764 74.9692 30.2273 75.7009 30.52C76.3595 30.8127 77.018 31.2517 77.5302 31.7639C78.047 32.2761 78.4128 32.9346 78.7055 33.5978C78.9982 34.3295 79.1445 35.0612 79.1445 35.866C79.1445 37.0414 78.925 37.9926 78.486 38.7975C77.9738 39.6069 77.3107 40.2654 76.4326 40.7045C77.5302 41.1435 78.4128 41.7289 78.925 42.6115C79.5104 43.5627 79.7299 44.5871 79.7299 45.9087C79.7299 46.86 79.5836 47.738 79.2909 48.4697C78.9982 49.2792 78.5592 49.9377 77.9738 50.4499C77.3839 51.0353 76.7253 51.4743 75.9205 51.7715C75.1156 52.0642 74.233 52.2106 73.2817 52.2106Z" fill="#414E62"/>
<path d="M91.7483 41.1435C91.7483 39.6069 91.6019 38.2853 91.4556 37.2609C91.2361 36.2319 90.9388 35.427 90.6461 34.7685C90.2803 34.1831 89.9144 33.7441 89.4754 33.5246C89.0364 33.3051 88.5974 33.1542 88.1583 33.1542C87.7147 33.1542 87.2757 33.3051 86.8367 33.5246C86.3977 33.7441 86.0318 34.1831 85.7391 34.7685C85.3733 35.427 85.1538 36.2319 84.9342 37.2609C84.7879 38.2853 84.6416 39.6069 84.6416 41.1435C84.6416 42.6846 84.7879 44.0017 84.9342 45.0261C85.1538 46.0551 85.3733 46.86 85.7391 47.4453C86.0318 48.1039 86.3977 48.5429 86.8367 48.767C87.2757 48.9865 87.7147 49.1328 88.1583 49.1328C88.5974 49.1328 89.0364 48.9865 89.4754 48.767C89.9144 48.5429 90.2803 48.1039 90.6461 47.4453C90.9388 46.86 91.2361 46.0551 91.4556 45.0261C91.6019 44.0017 91.7483 42.6846 91.7483 41.1435ZM94.9724 41.1435C94.9724 43.0505 94.826 44.6603 94.4602 46.0551C94.0897 47.4453 93.6507 48.6206 92.9922 49.4987C92.4068 50.3767 91.6751 51.1084 90.8657 51.5475C90.0608 51.991 89.1096 52.2106 88.1583 52.2106C87.2025 52.2106 86.3245 51.991 85.4464 51.5475C84.6416 51.1084 83.9053 50.3767 83.3199 49.4987C82.7346 48.6206 82.2224 47.4453 81.9297 46.0551C81.5638 44.6603 81.4175 43.0505 81.4175 41.1435C81.4175 39.2365 81.5638 37.6267 81.9297 36.2319C82.2224 34.8417 82.7346 33.6709 83.3199 32.7883C83.9053 31.9103 84.6416 31.1786 85.4464 30.7395C86.3245 30.3005 87.2025 30.0764 88.1583 30.0764C89.1096 30.0764 90.0608 30.3005 90.8657 30.7395C91.6751 31.1786 92.4068 31.9103 92.9922 32.7883C93.6507 33.6709 94.0897 34.8417 94.4602 36.2319C94.826 37.6267 94.9724 39.2365 94.9724 41.1435Z" fill="#414E62"/>
<path d="M107.132 54.5518L74.823 71.4085L42.4358 54.5518V15.4238L45.4404 16.9604V53.3811L74.823 68.0381L104.055 53.3811V16.814L107.279 15.4238L107.132 54.5518ZM46.977 12.4924L74.7498 25.096L102.518 12.4192V52.4299L74.823 66.2774L46.977 52.4299V12.4924ZM104.055 15.0579V10L74.7498 23.4085L45.4404 10V15.2043L40.8947 12.9314V55.5076L74.823 73.1646L108.674 55.4345L108.82 12.9314L104.055 15.0579Z" fill="#414E62"/>
</svg>
